<?xml version="1.0" standalone="no"?>
<!DOCTYPE svg PUBLIC "-//W3C//DTD SVG 20010904//EN"
 "http://www.w3.org/TR/2001/REC-SVG-20010904/DTD/svg10.dtd">
<svg version="1.0" xmlns="http://www.w3.org/2000/svg"
 width="1563.000000pt" height="1563.000000pt" viewBox="0 0 1563.000000 1563.000000"
 preserveAspectRatio="xMidYMid meet">
<metadata>
Created by potrace 1.14, written by Peter Selinger 2001-2017
</metadata>
<g transform="translate(0.000000,1563.000000) scale(0.100000,-0.100000)"
fill="#000000" stroke="none">
<path d="M0 7815 l0 -7815 7815 0 7815 0 0 7815 0 7815 -7815 0 -7815 0 0
-7815z m13178 1268 l-3 -3878 -137 -3 -138 -3 0 401 0 400 -170 0 -170 0 0
-415 0 -415 -105 0 -105 0 0 120 0 120 -190 0 -190 0 0 -280 0 -280 -210 0
-210 0 0 -520 0 -520 -160 0 -160 0 0 255 0 255 -145 0 -145 0 0 3678 0 3678
1108 642 c609 352 1113 641 1120 642 10 0 12 -779 10 -3877z m-8488 -388 l0
-3415 -140 0 -140 0 0 400 0 400 -170 0 -170 0 -2 -417 -3 -418 -95 0 -95 0
-3 118 -3 117 -194 0 -195 0 0 -275 0 -275 -210 0 -210 0 0 -520 0 -520 -155
0 -155 0 0 250 0 249 -147 3 -148 3 -3 3212 -2 3213 22 14 c47 31 2203 1275
2211 1275 4 1 7 -1536 7 -3414z m5680 385 l0 -1900 -140 0 -140 0 0 395 0 395
-170 0 -170 0 0 -415 0 -415 -100 0 -100 0 0 120 0 120 -195 0 -195 0 0 -275
0 -275 -210 0 -210 0 0 -525 0 -525 -155 0 -155 0 0 255 0 255 -150 0 -150 0
2 1701 3 1702 1110 643 c611 353 1113 643 1118 643 4 1 7 -854 7 -1899z
m-2875 -4687 c-3 -10 -41 -13 -140 -13 l-135 0 0 400 0 400 -170 0 -170 0 0
-415 0 -415 -105 0 -105 0 0 120 0 120 -190 0 -190 0 0 -280 0 -280 -210 0
-210 0 -2 -517 -3 -518 -155 0 -155 0 -3 253 -2 252 -145 0 -145 0 0 2833 0
2833 1118 647 1117 646 3 -3027 c1 -1665 0 -3033 -3 -3039z m2875 2232 l0
-315 -140 0 -140 0 0 315 0 315 140 0 140 0 0 -315z m-900 -540 l0 -525 -165
0 -165 0 0 518 c0 285 3 522 7 525 3 4 78 7 165 7 l158 0 0 -525z m570 -585
l0 -410 -125 0 -125 0 0 410 0 410 125 0 125 0 0 -410z m-1320 -355 l0 -495
-170 0 -170 0 0 495 0 495 170 0 170 0 0 -495z m-4032 -412 l2 -313 -140 0
-140 0 0 308 c0 170 3 312 7 316 4 3 66 5 137 4 l131 -3 3 -312z m8492 -78 l0
-315 -140 0 -140 0 0 315 0 315 140 0 140 0 0 -315z m-3690 50 l0 -165 -160 0
-160 0 0 165 0 165 160 0 160 0 0 -165z m-5700 -520 l0 -525 -162 2 -163 3 -3
523 -2 522 165 0 165 0 0 -525z m3710 -350 l0 -315 -140 0 -140 0 0 315 0 315
140 0 140 0 0 -315z m-3142 -232 l-3 -408 -120 0 -120 0 -3 408 -2 407 125 0
125 0 -2 -407z m-1318 -358 l0 -495 -167 2 -168 3 -3 493 -2 492 170 0 170 0
0 -495z m770 -435 l0 -160 -160 0 -160 0 0 160 0 160 160 0 160 0 0 -160z"/>
<path d="M12170 6795 l0 -305 115 0 115 0 0 305 0 305 -115 0 -115 0 0 -305z"/>
<path d="M11770 6225 l0 -265 105 0 105 0 0 265 0 265 -105 0 -105 0 0 -265z"/>
<path d="M3690 6875 l0 -305 110 0 110 0 0 305 0 305 -110 0 -110 0 0 -305z"/>
<path d="M3290 6305 l0 -265 100 0 100 0 0 265 0 265 -100 0 -100 0 0 -265z"/>
<path d="M9370 8770 l0 -310 110 0 110 0 0 310 0 310 -110 0 -110 0 0 -310z"/>
<path d="M8970 8200 l0 -260 100 0 100 0 0 260 0 260 -100 0 -100 0 0 -260z"/>
<path d="M6490 5980 l0 -310 115 0 115 0 0 310 0 310 -115 0 -115 0 0 -310z"/>
<path d="M6090 5410 l0 -260 105 0 105 0 0 260 0 260 -105 0 -105 0 0 -260z"/>
</g>
</svg>
