<svg xmlns="http://www.w3.org/2000/svg" xmlns:xlink="http://www.w3.org/1999/xlink" width="500" zoomAndPan="magnify" viewBox="0 0 375 374.999991" height="500" preserveAspectRatio="xMidYMid meet" version="1.0"><defs><g/><clipPath id="id1"><path d="M 41 131 L 98 131 L 98 197.359375 L 41 197.359375 Z M 41 131 " clip-rule="nonzero"/></clipPath><clipPath id="id2"><path d="M 30.496094 15.109375 L 108.496094 15.109375 L 108.496094 192 L 30.496094 192 Z M 30.496094 15.109375 " clip-rule="nonzero"/></clipPath><clipPath id="id3"><path d="M 41 103 L 108.496094 103 L 108.496094 192 L 41 192 Z M 41 103 " clip-rule="nonzero"/></clipPath></defs><path stroke-linecap="butt" transform="matrix(5.997612, 0, 0, 6.227027, 3.34444, 14.965214)" fill="none" stroke-linejoin="miter" d="M -0.000115021 -0.0000595191 L 58.898979 -0.0000595191 " stroke="#000000" stroke-width="1" stroke-opacity="1" stroke-miterlimit="4"/><path stroke-linecap="butt" transform="matrix(6.028985, 0.000000000000003311, -0.00000000000000342, 6.227027, 0.0000045, 365.016127)" fill="none" stroke-linejoin="miter" d="M -0.000000746394 -0.0000806534 L 12.938796 -0.0000806534 " stroke="#000000" stroke-width="1" stroke-opacity="1" stroke-miterlimit="4"/><path stroke-linecap="butt" transform="matrix(0.000000000000000368, -6.004533, 6.063157, 0.000000000000000371, 3.031492, 368.494049)" fill="none" stroke-linejoin="miter" d="M 0.00030995 -0.0000398441 L 59.456695 -0.0000398441 " stroke="#000000" stroke-width="1" stroke-opacity="1" stroke-miterlimit="4"/><path stroke-linecap="butt" transform="matrix(0.000000000000000368, -6.009745, 6.227027, 0.000000000000000381, 356.599728, 170.50304)" fill="none" stroke-linejoin="miter" d="M -0.00014414 0.000294557 L 26.457537 0.000294557 " stroke="#000000" stroke-width="1" stroke-opacity="1" stroke-miterlimit="4"/><g clip-path="url(#id1)"><path fill="#ffcd69" d="M 90.75 131.625 C 94.429688 131.625 97.453125 134.605469 97.453125 138.320312 C 97.453125 141.996094 94.46875 145.015625 90.75 145.015625 C 87.027344 145.015625 84.046875 142.035156 84.046875 138.320312 C 84.082031 134.605469 87.066406 131.625 90.75 131.625 Z M 41.539062 190.492188 C 41.539062 194.171875 44.523438 197.191406 48.242188 197.191406 C 51.921875 197.191406 54.945312 194.210938 54.945312 190.492188 C 54.945312 186.816406 51.960938 183.796875 48.242188 183.796875 C 44.523438 183.835938 41.539062 186.816406 41.539062 190.492188 Z M 41.539062 190.492188 " fill-opacity="1" fill-rule="nonzero"/></g><g clip-path="url(#id2)"><path fill="#121212" d="M 108.496094 122.140625 L 108.496094 138.9375 L 73.039062 138.9375 L 73.039062 122.140625 C 73.039062 114.128906 79.628906 107.550781 87.648438 107.550781 L 87.765625 107.550781 L 87.765625 15.277344 L 92.917969 15.277344 L 92.917969 107.585938 L 93.886719 107.585938 C 101.90625 107.585938 108.496094 114.128906 108.496094 122.140625 Z M 51.339844 159.761719 L 50.527344 159.761719 L 50.527344 15.277344 L 45.375 15.277344 L 45.375 159.761719 L 45.101562 159.761719 C 37.082031 159.761719 30.496094 166.339844 30.496094 174.355469 L 30.496094 191.152344 L 65.949219 191.152344 L 65.949219 174.355469 C 65.949219 166.339844 59.363281 159.761719 51.339844 159.761719 Z M 51.339844 159.761719 " fill-opacity="1" fill-rule="nonzero"/></g><g clip-path="url(#id3)"><path fill="#121212" d="M 108.496094 122.140625 L 108.496094 138.9375 L 103.378906 138.9375 L 103.378906 122.644531 C 103.378906 116.140625 99.738281 110.527344 94.585938 108.089844 L 84.082031 108.089844 L 84.082031 103.640625 L 97.453125 103.640625 L 97.453125 107.976562 C 103.769531 109.601562 108.496094 115.367188 108.496094 122.140625 Z M 54.90625 160.226562 L 54.90625 155.890625 L 41.539062 155.890625 L 41.539062 160.226562 L 51.84375 160.226562 C 57.113281 162.625 60.835938 168.316406 60.835938 174.894531 L 60.835938 191.191406 L 65.949219 191.191406 L 65.949219 174.355469 C 65.949219 167.582031 61.222656 161.8125 54.90625 160.226562 Z M 54.90625 160.226562 " fill-opacity="1" fill-rule="nonzero"/></g><g fill="#000000" fill-opacity="1"><g transform="translate(265.692901, 247.443368)"><g><path d="M 16.664062 0.628906 C 24.863281 0.628906 29.863281 -4.503906 29.863281 -12.972656 L 29.863281 -31.53125 L 22.703125 -31.53125 L 22.703125 -13.46875 C 22.703125 -8.648438 20.675781 -6.171875 16.664062 -6.171875 C 12.65625 -6.171875 10.628906 -8.648438 10.628906 -13.46875 L 10.628906 -31.53125 L 3.46875 -31.53125 L 3.46875 -12.972656 C 3.46875 -4.503906 8.46875 0.628906 16.664062 0.628906 Z M 16.664062 0.628906 "/></g></g></g><g fill="#000000" fill-opacity="1"><g transform="translate(312.315886, 247.443368)"><g><path d="M 3.785156 0 L 10.898438 0 L 10.898438 -19.324219 L 24.820312 0 L 30.898438 0 L 30.898438 -31.53125 L 23.78125 -31.53125 L 23.78125 -12.339844 L 9.863281 -31.53125 L 3.785156 -31.53125 Z M 3.785156 0 "/></g></g></g><g fill="#000000" fill-opacity="1"><g transform="translate(360.290081, 247.443368)"><g><path d="M 3.785156 0 L 10.945312 0 L 10.945312 -31.53125 L 3.785156 -31.53125 Z M 3.785156 0 "/></g></g></g><g fill="#000000" fill-opacity="1"><g transform="translate(104.745424, 310.002723)"><g><path d="M 3.785156 0 L 10.945312 0 L 10.945312 -31.53125 L 3.785156 -31.53125 Z M 3.785156 0 "/></g></g></g><g fill="#000000" fill-opacity="1"><g transform="translate(132.767024, 310.002723)"><g><path d="M 3.785156 0 L 10.898438 0 L 10.898438 -19.324219 L 24.820312 0 L 30.898438 0 L 30.898438 -31.53125 L 23.78125 -31.53125 L 23.78125 -12.339844 L 9.863281 -31.53125 L 3.785156 -31.53125 Z M 3.785156 0 "/></g></g></g><g fill="#000000" fill-opacity="1"><g transform="translate(180.741219, 310.002723)"><g><path d="M 11.351562 0 L 18.511719 0 L 18.511719 -24.820312 L 28.511719 -24.820312 L 28.511719 -31.53125 L 1.351562 -31.53125 L 1.351562 -24.820312 L 11.351562 -24.820312 Z M 11.351562 0 "/></g></g></g><g fill="#000000" fill-opacity="1"><g transform="translate(223.896137, 310.002723)"><g><path d="M 3.785156 0 L 25 0 L 25 -6.082031 L 10.898438 -6.082031 L 10.898438 -12.972656 L 23.285156 -12.972656 L 23.285156 -18.964844 L 10.898438 -18.964844 L 10.898438 -25.496094 L 24.503906 -25.496094 L 24.503906 -31.53125 L 3.785156 -31.53125 Z M 3.785156 0 "/></g></g></g><g fill="#000000" fill-opacity="1"><g transform="translate(264.483834, 310.002723)"><g><path d="M 3.785156 0 L 10.945312 0 L 10.945312 -9.820312 L 15.675781 -9.820312 L 21.304688 0 L 29.59375 0 L 23.0625 -10.945312 C 26.84375 -12.613281 29.050781 -16.035156 29.050781 -20.675781 C 29.050781 -27.386719 24.457031 -31.53125 17.25 -31.53125 L 3.785156 -31.53125 Z M 10.855469 -15.855469 L 10.855469 -25.402344 L 16.304688 -25.402344 C 19.820312 -25.402344 21.800781 -23.691406 21.800781 -20.628906 C 21.800781 -17.566406 19.820312 -15.855469 16.304688 -15.855469 Z M 10.855469 -15.855469 "/></g></g></g><g fill="#000000" fill-opacity="1"><g transform="translate(309.485396, 310.002723)"><g><path d="M 3.785156 0 L 10.945312 0 L 10.945312 -31.53125 L 3.785156 -31.53125 Z M 3.785156 0 "/></g></g></g><g fill="#000000" fill-opacity="1"><g transform="translate(337.507001, 310.002723)"><g><path d="M 18.738281 0.628906 C 28.601562 0.628906 35.582031 -6.125 35.582031 -15.765625 C 35.582031 -25.402344 28.601562 -32.160156 18.738281 -32.160156 C 8.875 -32.160156 1.9375 -25.402344 1.9375 -15.765625 C 1.9375 -6.125 8.875 0.628906 18.738281 0.628906 Z M 9.234375 -15.765625 C 9.234375 -21.441406 13.152344 -25.359375 18.738281 -25.359375 C 24.367188 -25.359375 28.242188 -21.441406 28.242188 -15.765625 C 28.242188 -10.089844 24.367188 -6.171875 18.738281 -6.171875 C 13.152344 -6.171875 9.234375 -10.089844 9.234375 -15.765625 Z M 9.234375 -15.765625 "/></g></g></g><g fill="#000000" fill-opacity="1"><g transform="translate(130.694067, 370.947753)"><g><path d="M 1.769531 0 L 6.703125 0 C 9.152344 0 10.679688 -1.300781 10.679688 -3.402344 C 10.679688 -4.777344 10.003906 -5.800781 8.753906 -6.304688 C 9.742188 -6.808594 10.332031 -7.746094 10.332031 -8.925781 C 10.332031 -10.890625 8.804688 -12.15625 6.476562 -12.15625 L 1.769531 -12.15625 Z M 3.300781 -1.425781 L 3.300781 -5.503906 L 6.652344 -5.503906 C 8.230469 -5.503906 9.117188 -4.757812 9.117188 -3.472656 C 9.117188 -2.171875 8.230469 -1.425781 6.667969 -1.425781 Z M 3.300781 -6.894531 L 3.300781 -10.734375 L 6.441406 -10.734375 C 7.917969 -10.734375 8.769531 -10.039062 8.769531 -8.804688 C 8.769531 -7.589844 7.9375 -6.894531 6.441406 -6.894531 Z M 3.300781 -6.894531 "/></g></g></g><g fill="#000000" fill-opacity="1"><g transform="translate(146.272028, 370.947753)"><g><path d="M 1.769531 0 L 9.34375 0 L 9.34375 -1.425781 L 3.300781 -1.425781 L 3.300781 -5.488281 L 8.71875 -5.488281 L 8.71875 -6.894531 L 3.300781 -6.894531 L 3.300781 -10.734375 L 9.152344 -10.734375 L 9.152344 -12.15625 L 1.769531 -12.15625 Z M 1.769531 0 "/></g></g></g><g fill="#000000" fill-opacity="1"><g transform="translate(160.669045, 370.947753)"><g><path d="M 5.816406 0.226562 C 8.476562 0.226562 10.195312 -1.078125 10.195312 -3.195312 C 10.195312 -4.984375 8.996094 -6.0625 5.886719 -6.824219 C 3.527344 -7.398438 2.742188 -8.023438 2.742188 -9.03125 C 2.742188 -10.195312 3.785156 -10.921875 5.523438 -10.921875 C 7.3125 -10.921875 8.421875 -10.019531 8.457031 -8.5625 L 9.96875 -8.5625 C 9.949219 -10.921875 8.25 -12.382812 5.523438 -12.382812 C 2.867188 -12.382812 1.179688 -11.078125 1.179688 -9.03125 C 1.179688 -7.15625 2.519531 -6.113281 5.503906 -5.402344 C 7.695312 -4.878906 8.613281 -4.273438 8.613281 -3.144531 C 8.613281 -1.945312 7.539062 -1.234375 5.816406 -1.234375 C 3.925781 -1.234375 2.605469 -2.171875 2.570312 -3.734375 L 1.042969 -3.734375 C 1.058594 -1.355469 2.917969 0.226562 5.816406 0.226562 Z M 5.816406 0.226562 "/></g></g></g><g fill="#000000" fill-opacity="1"><g transform="translate(175.830194, 370.947753)"><g><path d="M 4.707031 0 L 6.234375 0 L 6.234375 -10.699219 L 10.332031 -10.699219 L 10.332031 -12.15625 L 0.589844 -12.15625 L 0.589844 -10.699219 L 4.707031 -10.699219 Z M 4.707031 0 "/></g></g></g><g fill="#000000" fill-opacity="1"><g transform="translate(190.696118, 370.947753)"><g/></g></g><g fill="#000000" fill-opacity="1"><g transform="translate(198.92794, 370.947753)"><g><path d="M 1.769531 0 L 3.300781 0 L 3.300781 -12.15625 L 1.769531 -12.15625 Z M 1.769531 0 "/></g></g></g><g fill="#000000" fill-opacity="1"><g transform="translate(207.923895, 370.947753)"><g><path d="M 1.769531 0 L 3.28125 0 L 3.28125 -9.515625 L 10.003906 0 L 11.425781 0 L 11.425781 -12.15625 L 9.933594 -12.15625 L 9.933594 -2.640625 L 3.210938 -12.15625 L 1.769531 -12.15625 Z M 1.769531 0 "/></g></g></g><g fill="#000000" fill-opacity="1"><g transform="translate(225.047497, 370.947753)"><g/></g></g><g fill="#000000" fill-opacity="1"><g transform="translate(233.279319, 370.947753)"><g><path d="M 1.769531 0 L 3.300781 0 L 3.300781 -12.15625 L 1.769531 -12.15625 Z M 1.769531 0 "/></g></g></g><g fill="#000000" fill-opacity="1"><g transform="translate(242.275274, 370.947753)"><g><path d="M 1.769531 0 L 3.28125 0 L 3.28125 -9.515625 L 10.003906 0 L 11.425781 0 L 11.425781 -12.15625 L 9.933594 -12.15625 L 9.933594 -2.640625 L 3.210938 -12.15625 L 1.769531 -12.15625 Z M 1.769531 0 "/></g></g></g><g fill="#000000" fill-opacity="1"><g transform="translate(259.398876, 370.947753)"><g><path d="M 4.707031 0 L 6.234375 0 L 6.234375 -10.699219 L 10.332031 -10.699219 L 10.332031 -12.15625 L 0.589844 -12.15625 L 0.589844 -10.699219 L 4.707031 -10.699219 Z M 4.707031 0 "/></g></g></g><g fill="#000000" fill-opacity="1"><g transform="translate(274.264796, 370.947753)"><g><path d="M 1.769531 0 L 9.34375 0 L 9.34375 -1.425781 L 3.300781 -1.425781 L 3.300781 -5.488281 L 8.71875 -5.488281 L 8.71875 -6.894531 L 3.300781 -6.894531 L 3.300781 -10.734375 L 9.152344 -10.734375 L 9.152344 -12.15625 L 1.769531 -12.15625 Z M 1.769531 0 "/></g></g></g><g fill="#000000" fill-opacity="1"><g transform="translate(288.661811, 370.947753)"><g><path d="M 1.769531 0 L 3.300781 0 L 3.300781 -4.359375 L 5.972656 -4.359375 L 8.945312 0 L 10.785156 0 L 7.726562 -4.515625 C 9.5 -4.949219 10.59375 -6.285156 10.59375 -8.25 C 10.59375 -10.664062 8.925781 -12.15625 6.410156 -12.15625 L 1.769531 -12.15625 Z M 3.300781 -5.816406 L 3.300781 -10.699219 L 6.234375 -10.699219 C 8.007812 -10.699219 9.03125 -9.792969 9.03125 -8.25 C 9.03125 -6.703125 8.007812 -5.816406 6.234375 -5.816406 Z M 3.300781 -5.816406 "/></g></g></g><g fill="#000000" fill-opacity="1"><g transform="translate(304.413429, 370.947753)"><g><path d="M 1.769531 0 L 3.300781 0 L 3.300781 -12.15625 L 1.769531 -12.15625 Z M 1.769531 0 "/></g></g></g><g fill="#000000" fill-opacity="1"><g transform="translate(313.409384, 370.947753)"><g><path d="M 7.292969 0.226562 C 10.992188 0.226562 13.597656 -2.378906 13.597656 -6.078125 C 13.597656 -9.777344 10.992188 -12.382812 7.292969 -12.382812 C 3.59375 -12.382812 1.007812 -9.777344 1.007812 -6.078125 C 1.007812 -2.378906 3.59375 0.226562 7.292969 0.226562 Z M 2.570312 -6.078125 C 2.570312 -8.910156 4.496094 -10.855469 7.292969 -10.855469 C 10.089844 -10.855469 12.019531 -8.910156 12.019531 -6.078125 C 12.019531 -3.246094 10.089844 -1.300781 7.292969 -1.300781 C 4.496094 -1.300781 2.570312 -3.246094 2.570312 -6.078125 Z M 2.570312 -6.078125 "/></g></g></g><g fill="#000000" fill-opacity="1"><g transform="translate(331.922326, 370.947753)"><g><path d="M 1.769531 0 L 3.300781 0 L 3.300781 -4.359375 L 5.972656 -4.359375 L 8.945312 0 L 10.785156 0 L 7.726562 -4.515625 C 9.5 -4.949219 10.59375 -6.285156 10.59375 -8.25 C 10.59375 -10.664062 8.925781 -12.15625 6.410156 -12.15625 L 1.769531 -12.15625 Z M 3.300781 -5.816406 L 3.300781 -10.699219 L 6.234375 -10.699219 C 8.007812 -10.699219 9.03125 -9.792969 9.03125 -8.25 C 9.03125 -6.703125 8.007812 -5.816406 6.234375 -5.816406 Z M 3.300781 -5.816406 "/></g></g></g><g fill="#000000" fill-opacity="1"><g transform="translate(347.673955, 370.947753)"><g><path d="M 5.816406 0.226562 C 8.476562 0.226562 10.195312 -1.078125 10.195312 -3.195312 C 10.195312 -4.984375 8.996094 -6.0625 5.886719 -6.824219 C 3.527344 -7.398438 2.742188 -8.023438 2.742188 -9.03125 C 2.742188 -10.195312 3.785156 -10.921875 5.523438 -10.921875 C 7.3125 -10.921875 8.421875 -10.019531 8.457031 -8.5625 L 9.96875 -8.5625 C 9.949219 -10.921875 8.25 -12.382812 5.523438 -12.382812 C 2.867188 -12.382812 1.179688 -11.078125 1.179688 -9.03125 C 1.179688 -7.15625 2.519531 -6.113281 5.503906 -5.402344 C 7.695312 -4.878906 8.613281 -4.273438 8.613281 -3.144531 C 8.613281 -1.945312 7.539062 -1.234375 5.816406 -1.234375 C 3.925781 -1.234375 2.605469 -2.171875 2.570312 -3.734375 L 1.042969 -3.734375 C 1.058594 -1.355469 2.917969 0.226562 5.816406 0.226562 Z M 5.816406 0.226562 "/></g></g></g></svg>